<svg width="18" height="18" viewBox="0 0 18 18" fill="none" xmlns="http://www.w3.org/2000/svg">
<path d="M12.1645 2.81487C12.4743 2.81487 12.7255 2.5637 12.7255 2.25387C12.7255 1.94404 12.4743 1.69287 12.1645 1.69287C11.8547 1.69287 11.6035 1.94404 11.6035 2.25387C11.6035 2.5637 11.8547 2.81487 12.1645 2.81487Z" fill="#F05728"/>
<path d="M7.42703 2.18316C7.61757 2.18316 7.77203 2.0287 7.77203 1.83816C7.77203 1.64763 7.61757 1.49316 7.42703 1.49316C7.23649 1.49316 7.08203 1.64763 7.08203 1.83816C7.08203 2.0287 7.23649 2.18316 7.42703 2.18316Z" fill="#F05728"/>
<path d="M9.13273 1.96396C9.31499 1.96396 9.46273 1.81621 9.46273 1.63396C9.46273 1.4517 9.31499 1.30396 9.13273 1.30396C8.95048 1.30396 8.80273 1.4517 8.80273 1.63396C8.80273 1.81621 8.95048 1.96396 9.13273 1.96396Z" fill="#F05728"/>
<path d="M6.87883 1.785C7.06108 1.785 7.20883 1.63725 7.20883 1.455C7.20883 1.27275 7.06108 1.125 6.87883 1.125C6.69657 1.125 6.54883 1.27275 6.54883 1.455C6.54883 1.63725 6.69657 1.785 6.87883 1.785Z" fill="#F05728"/>
<path d="M5.99211 1.9642C6.17436 1.9642 6.32211 1.81645 6.32211 1.6342C6.32211 1.45195 6.17436 1.3042 5.99211 1.3042C5.80986 1.3042 5.66211 1.45195 5.66211 1.6342C5.66211 1.81645 5.80986 1.9642 5.99211 1.9642Z" fill="#F05728"/>
<path d="M13.2465 2.933C13.4409 2.933 13.5985 2.77541 13.5985 2.581C13.5985 2.3866 13.4409 2.229 13.2465 2.229C13.0521 2.229 12.8945 2.3866 12.8945 2.581C12.8945 2.77541 13.0521 2.933 13.2465 2.933Z" fill="#F05728"/>
<path d="M4.83695 2.91512C5.02197 2.91512 5.17195 2.76513 5.17195 2.58012C5.17195 2.3951 5.02197 2.24512 4.83695 2.24512C4.65194 2.24512 4.50195 2.3951 4.50195 2.58012C4.50195 2.76513 4.65194 2.91512 4.83695 2.91512Z" fill="#F05728"/>
<path d="M5.84642 2.41989C5.97842 2.41989 6.08542 2.31289 6.08542 2.18089C6.08542 2.0489 5.97842 1.94189 5.84642 1.94189C5.71443 1.94189 5.60742 2.0489 5.60742 2.18089C5.60742 2.31289 5.71443 2.41989 5.84642 2.41989Z" fill="#F05728"/>
<path d="M5.34837 2.5571C5.48037 2.5571 5.58737 2.4501 5.58737 2.3181C5.58737 2.18611 5.48037 2.0791 5.34837 2.0791C5.21638 2.0791 5.10938 2.18611 5.10938 2.3181C5.10938 2.4501 5.21638 2.5571 5.34837 2.5571Z" fill="#F05728"/>
<path d="M9.85423 1.44577C9.98623 1.44577 10.0932 1.33877 10.0932 1.20677C10.0932 1.07478 9.98623 0.967773 9.85423 0.967773C9.72224 0.967773 9.61523 1.07478 9.61523 1.20677C9.61523 1.33877 9.72224 1.44577 9.85423 1.44577Z" fill="#F05728"/>
<path d="M3.80147 3.13199C3.90972 3.13199 3.99747 3.04424 3.99747 2.93599C3.99747 2.82774 3.90972 2.73999 3.80147 2.73999C3.69322 2.73999 3.60547 2.82774 3.60547 2.93599C3.60547 3.04424 3.69322 3.13199 3.80147 3.13199Z" fill="#F05728"/>
<path d="M6.76342 2.58788C6.98765 2.58788 7.16942 2.40611 7.16942 2.18188C7.16942 1.95765 6.98765 1.77588 6.76342 1.77588C6.53919 1.77588 6.35742 1.95765 6.35742 2.18188C6.35742 2.40611 6.53919 2.58788 6.76342 2.58788Z" fill="#F05728"/>
<path d="M7.97631 1.72997C8.20054 1.72997 8.38231 1.5482 8.38231 1.32397C8.38231 1.09974 8.20054 0.917969 7.97631 0.917969C7.75208 0.917969 7.57031 1.09974 7.57031 1.32397C7.57031 1.5482 7.75208 1.72997 7.97631 1.72997Z" fill="#F05728"/>
<path d="M8.37361 3.20498C8.80108 3.20498 9.14761 2.85845 9.14761 2.43098C9.14761 2.00351 8.80108 1.65698 8.37361 1.65698C7.94614 1.65698 7.59961 2.00351 7.59961 2.43098C7.59961 2.85845 7.94614 3.20498 8.37361 3.20498Z" fill="#F05728"/>
<path d="M10.3905 3.82589C11.0775 3.82589 11.6345 3.26893 11.6345 2.58189C11.6345 1.89485 11.0775 1.33789 10.3905 1.33789C9.70344 1.33789 9.14648 1.89485 9.14648 2.58189C9.14648 3.26893 9.70344 3.82589 10.3905 3.82589Z" fill="#F05728"/>
<path d="M11.2231 4.74212C11.5329 4.74212 11.7841 4.49095 11.7841 4.18112C11.7841 3.87129 11.5329 3.62012 11.2231 3.62012C10.9133 3.62012 10.6621 3.87129 10.6621 4.18112C10.6621 4.49095 10.9133 4.74212 11.2231 4.74212Z" fill="#F05728"/>
<path d="M12.0063 3.93792C12.3161 3.93792 12.5673 3.68675 12.5673 3.37692C12.5673 3.06709 12.3161 2.81592 12.0063 2.81592C11.6965 2.81592 11.4453 3.06709 11.4453 3.37692C11.4453 3.68675 11.6965 3.93792 12.0063 3.93792Z" fill="#F05728"/>
<path d="M12.4277 5.28109C12.817 5.28109 13.1327 4.96545 13.1327 4.57609C13.1327 4.18673 12.817 3.87109 12.4277 3.87109C12.0383 3.87109 11.7227 4.18673 11.7227 4.57609C11.7227 4.96545 12.0383 5.28109 12.4277 5.28109Z" fill="#F05728"/>
<path d="M13.7655 4.88705C14.1549 4.88705 14.4705 4.57141 14.4705 4.18205C14.4705 3.79269 14.1549 3.47705 13.7655 3.47705C13.3762 3.47705 13.0605 3.79269 13.0605 4.18205C13.0605 4.57141 13.3762 4.88705 13.7655 4.88705Z" fill="#F05728"/>
<path d="M13.953 6.62289C14.3424 6.62289 14.658 6.30725 14.658 5.91789C14.658 5.52853 14.3424 5.21289 13.953 5.21289C13.5637 5.21289 13.248 5.52853 13.248 5.91789C13.248 6.30725 13.5637 6.62289 13.953 6.62289Z" fill="#F05728"/>
<path d="M13.3144 5.43783C13.4966 5.43783 13.6444 5.29009 13.6444 5.10783C13.6444 4.92558 13.4966 4.77783 13.3144 4.77783C13.1321 4.77783 12.9844 4.92558 12.9844 5.10783C12.9844 5.29009 13.1321 5.43783 13.3144 5.43783Z" fill="#F05728"/>
<path d="M14.7323 4.13705C14.9146 4.13705 15.0623 3.9893 15.0623 3.80705C15.0623 3.6248 14.9146 3.47705 14.7323 3.47705C14.5501 3.47705 14.4023 3.6248 14.4023 3.80705C14.4023 3.9893 14.5501 4.13705 14.7323 4.13705Z" fill="#F05728"/>
<path d="M13.6191 3.47689C13.8013 3.47689 13.9491 3.32915 13.9491 3.14689C13.9491 2.96464 13.8013 2.81689 13.6191 2.81689C13.4368 2.81689 13.2891 2.96464 13.2891 3.14689C13.2891 3.32915 13.4368 3.47689 13.6191 3.47689Z" fill="#F05728"/>
<path d="M12.8652 3.47689C13.0474 3.47689 13.1952 3.32915 13.1952 3.14689C13.1952 2.96464 13.0474 2.81689 12.8652 2.81689C12.6829 2.81689 12.5352 2.96464 12.5352 3.14689C12.5352 3.32915 12.6829 3.47689 12.8652 3.47689Z" fill="#F05728"/>
<path d="M3.58144 7.85575C3.82058 7.85575 4.01444 7.66189 4.01444 7.42275C4.01444 7.18361 3.82058 6.98975 3.58144 6.98975C3.3423 6.98975 3.14844 7.18361 3.14844 7.42275C3.14844 7.66189 3.3423 7.85575 3.58144 7.85575Z" fill="#F05728"/>
<path d="M14.9868 6.46181C15.1812 6.46181 15.3388 6.30422 15.3388 6.10981C15.3388 5.91541 15.1812 5.75781 14.9868 5.75781C14.7924 5.75781 14.6348 5.91541 14.6348 6.10981C14.6348 6.30422 14.7924 6.46181 14.9868 6.46181Z" fill="#F05728"/>
<path d="M15.4418 4.97207C15.6362 4.97207 15.7938 4.81447 15.7938 4.62007C15.7938 4.42566 15.6362 4.26807 15.4418 4.26807C15.2474 4.26807 15.0898 4.42566 15.0898 4.62007C15.0898 4.81447 15.2474 4.97207 15.4418 4.97207Z" fill="#F05728"/>
<path d="M14.5656 5.39703C14.7992 5.39703 14.9886 5.20764 14.9886 4.97403C14.9886 4.74041 14.7992 4.55103 14.5656 4.55103C14.332 4.55103 14.1426 4.74041 14.1426 4.97403C14.1426 5.20764 14.332 5.39703 14.5656 5.39703Z" fill="#F05728"/>
<path d="M15.296 5.81914C15.5297 5.81914 15.719 5.62976 15.719 5.39614C15.719 5.16253 15.5297 4.97314 15.296 4.97314C15.0624 4.97314 14.873 5.16253 14.873 5.39614C14.873 5.62976 15.0624 5.81914 15.296 5.81914Z" fill="#F05728"/>
<path d="M15.9914 7.08379C16.225 7.08379 16.4144 6.89441 16.4144 6.66079C16.4144 6.42718 16.225 6.23779 15.9914 6.23779C15.7577 6.23779 15.5684 6.42718 15.5684 6.66079C15.5684 6.89441 15.7577 7.08379 15.9914 7.08379Z" fill="#F05728"/>
<path d="M13.763 7.20917C13.932 7.20917 14.069 7.07217 14.069 6.90317C14.069 6.73417 13.932 6.59717 13.763 6.59717C13.594 6.59717 13.457 6.73417 13.457 6.90317C13.457 7.07217 13.594 7.20917 13.763 7.20917Z" fill="#F05728"/>
<path d="M15.0461 14.762C15.257 14.762 15.4281 14.591 15.4281 14.38C15.4281 14.1691 15.257 13.998 15.0461 13.998C14.8351 13.998 14.6641 14.1691 14.6641 14.38C14.6641 14.591 14.8351 14.762 15.0461 14.762Z" fill="#F05728"/>
<path d="M14.6702 8.10313C15.0684 8.10313 15.3912 7.78033 15.3912 7.38213C15.3912 6.98394 15.0684 6.66113 14.6702 6.66113C14.272 6.66113 13.9492 6.98394 13.9492 7.38213C13.9492 7.78033 14.272 8.10313 14.6702 8.10313Z" fill="#F05728"/>
<path d="M15.4435 9.43897C15.7456 9.43897 15.9905 9.19407 15.9905 8.89197C15.9905 8.58987 15.7456 8.34497 15.4435 8.34497C15.1414 8.34497 14.8965 8.58987 14.8965 8.89197C14.8965 9.19407 15.1414 9.43897 15.4435 9.43897Z" fill="#F05728"/>
<path d="M14.4577 8.80008C14.6565 8.80008 14.8177 8.6389 14.8177 8.44008C14.8177 8.24126 14.6565 8.08008 14.4577 8.08008C14.2588 8.08008 14.0977 8.24126 14.0977 8.44008C14.0977 8.6389 14.2588 8.80008 14.4577 8.80008Z" fill="#F05728"/>
<path d="M16.7043 9.16982C16.939 9.16982 17.1293 8.97955 17.1293 8.74482C17.1293 8.5101 16.939 8.31982 16.7043 8.31982C16.4696 8.31982 16.2793 8.5101 16.2793 8.74482C16.2793 8.97955 16.4696 9.16982 16.7043 9.16982Z" fill="#F05728"/>
<path d="M14.6574 9.89395C14.8921 9.89395 15.0824 9.70367 15.0824 9.46895C15.0824 9.23422 14.8921 9.04395 14.6574 9.04395C14.4227 9.04395 14.2324 9.23422 14.2324 9.46895C14.2324 9.70367 14.4227 9.89395 14.6574 9.89395Z" fill="#F05728"/>
<path d="M14.5913 11.269C14.9707 11.269 15.2783 10.9614 15.2783 10.582C15.2783 10.2026 14.9707 9.89502 14.5913 9.89502C14.2119 9.89502 13.9043 10.2026 13.9043 10.582C13.9043 10.9614 14.2119 11.269 14.5913 11.269Z" fill="#F05728"/>
<path d="M16.2104 10.5439C16.5899 10.5439 16.8974 10.2363 16.8974 9.85692C16.8974 9.4775 16.5899 9.16992 16.2104 9.16992C15.831 9.16992 15.5234 9.4775 15.5234 9.85692C15.5234 10.2363 15.831 10.5439 16.2104 10.5439Z" fill="#F05728"/>
<path d="M16.5681 11.1211C16.7459 11.1211 16.8901 10.9769 16.8901 10.7991C16.8901 10.6212 16.7459 10.4771 16.5681 10.4771C16.3903 10.4771 16.2461 10.6212 16.2461 10.7991C16.2461 10.9769 16.3903 11.1211 16.5681 11.1211Z" fill="#F05728"/>
<path d="M15.6361 12.1502C16.0133 12.1502 16.3191 11.8444 16.3191 11.4672C16.3191 11.09 16.0133 10.7842 15.6361 10.7842C15.2589 10.7842 14.9531 11.09 14.9531 11.4672C14.9531 11.8444 15.2589 12.1502 15.6361 12.1502Z" fill="#F05728"/>
<path d="M14.2318 13.188C14.609 13.188 14.9148 12.8822 14.9148 12.505C14.9148 12.1278 14.609 11.822 14.2318 11.822C13.8546 11.822 13.5488 12.1278 13.5488 12.505C13.5488 12.8822 13.8546 13.188 14.2318 13.188Z" fill="#F05728"/>
<path d="M14.9405 13.5631C15.1255 13.5631 15.2755 13.4131 15.2755 13.2281C15.2755 13.0431 15.1255 12.8931 14.9405 12.8931C14.7555 12.8931 14.6055 13.0431 14.6055 13.2281C14.6055 13.4131 14.7555 13.5631 14.9405 13.5631Z" fill="#F05728"/>
<path d="M16.1748 12.6671C16.3599 12.6671 16.5098 12.5171 16.5098 12.3321C16.5098 12.1471 16.3599 11.9971 16.1748 11.9971C15.9898 11.9971 15.8398 12.1471 15.8398 12.3321C15.8398 12.5171 15.9898 12.6671 16.1748 12.6671Z" fill="#F05728"/>
<path d="M15.753 13.1881C15.938 13.1881 16.088 13.0381 16.088 12.8531C16.088 12.6681 15.938 12.5181 15.753 12.5181C15.568 12.5181 15.418 12.6681 15.418 12.8531C15.418 13.0381 15.568 13.1881 15.753 13.1881Z" fill="#F05728"/>
<path d="M14.6065 14.1319C14.7915 14.1319 14.9415 13.9819 14.9415 13.7969C14.9415 13.6119 14.7915 13.4619 14.6065 13.4619C14.4215 13.4619 14.2715 13.6119 14.2715 13.7969C14.2715 13.9819 14.4215 14.1319 14.6065 14.1319Z" fill="#F05728"/>
<path d="M11.1748 14.8219C11.3599 14.8219 11.5098 14.6719 11.5098 14.4869C11.5098 14.3018 11.3599 14.1519 11.1748 14.1519C10.9898 14.1519 10.8398 14.3018 10.8398 14.4869C10.8398 14.6719 10.9898 14.8219 11.1748 14.8219Z" fill="#F05728"/>
<path d="M14.2549 15.515C14.4399 15.515 14.5899 15.365 14.5899 15.18C14.5899 14.995 14.4399 14.845 14.2549 14.845C14.0699 14.845 13.9199 14.995 13.9199 15.18C13.9199 15.365 14.0699 15.515 14.2549 15.515Z" fill="#F05728"/>
<path d="M14.8712 15.3308C15.0352 15.3308 15.1682 15.1978 15.1682 15.0338C15.1682 14.8698 15.0352 14.7368 14.8712 14.7368C14.7072 14.7368 14.5742 14.8698 14.5742 15.0338C14.5742 15.1978 14.7072 15.3308 14.8712 15.3308Z" fill="#F05728"/>
<path d="M14.2662 14.8449C14.4865 14.8449 14.6652 14.6662 14.6652 14.4459C14.6652 14.2255 14.4865 14.0469 14.2662 14.0469C14.0458 14.0469 13.8672 14.2255 13.8672 14.4459C13.8672 14.6662 14.0458 14.8449 14.2662 14.8449Z" fill="#F05728"/>
<path d="M14.0854 11.8338C14.2792 11.8338 14.4364 11.6767 14.4364 11.4828C14.4364 11.289 14.2792 11.1318 14.0854 11.1318C13.8915 11.1318 13.7344 11.289 13.7344 11.4828C13.7344 11.6767 13.8915 11.8338 14.0854 11.8338Z" fill="#F05728"/>
<path d="M15.1785 14.0119C15.3104 14.0119 15.4175 13.9049 15.4175 13.7729C15.4175 13.6409 15.3104 13.5339 15.1785 13.5339C15.0465 13.5339 14.9395 13.6409 14.9395 13.7729C14.9395 13.9049 15.0465 14.0119 15.1785 14.0119Z" fill="#F05728"/>
<path d="M13.6861 16.3819C13.8363 16.3819 13.9581 16.2601 13.9581 16.1099C13.9581 15.9597 13.8363 15.8379 13.6861 15.8379C13.5358 15.8379 13.4141 15.9597 13.4141 16.1099C13.4141 16.2601 13.5358 16.3819 13.6861 16.3819Z" fill="#F05728"/>
<path d="M16.4773 12.084C16.6093 12.084 16.7163 11.977 16.7163 11.845C16.7163 11.713 16.6093 11.606 16.4773 11.606C16.3453 11.606 16.2383 11.713 16.2383 11.845C16.2383 11.977 16.3453 12.084 16.4773 12.084Z" fill="#F05728"/>
<path d="M15.4949 13.6069C15.6269 13.6069 15.7339 13.4999 15.7339 13.3679C15.7339 13.2359 15.6269 13.1289 15.4949 13.1289C15.3629 13.1289 15.2559 13.2359 15.2559 13.3679C15.2559 13.4999 15.3629 13.6069 15.4949 13.6069Z" fill="#F05728"/>
<path d="M13.4226 13.186C13.5546 13.186 13.6616 13.079 13.6616 12.947C13.6616 12.815 13.5546 12.708 13.4226 12.708C13.2906 12.708 13.1836 12.815 13.1836 12.947C13.1836 13.079 13.2906 13.186 13.4226 13.186Z" fill="#F05728"/>
<path d="M12.6023 13.7402C12.7343 13.7402 12.8413 13.6332 12.8413 13.5012C12.8413 13.3692 12.7343 13.2622 12.6023 13.2622C12.4703 13.2622 12.3633 13.3692 12.3633 13.5012C12.3633 13.6332 12.4703 13.7402 12.6023 13.7402Z" fill="#F05728"/>
<path d="M13.3475 12.473C13.4811 12.473 13.5895 12.3647 13.5895 12.231C13.5895 12.0974 13.4811 11.989 13.3475 11.989C13.2138 11.989 13.1055 12.0974 13.1055 12.231C13.1055 12.3647 13.2138 12.473 13.3475 12.473Z" fill="#F05728"/>
<path d="M13.0227 13.23C13.1205 13.23 13.1997 13.1507 13.1997 13.053C13.1997 12.9552 13.1205 12.876 13.0227 12.876C12.9249 12.876 12.8457 12.9552 12.8457 13.053C12.8457 13.1507 12.9249 13.23 13.0227 13.23Z" fill="#F05728"/>
<path d="M16.8645 11.374C16.9623 11.374 17.0415 11.2948 17.0415 11.197C17.0415 11.0993 16.9623 11.02 16.8645 11.02C16.7667 11.02 16.6875 11.0993 16.6875 11.197C16.6875 11.2948 16.7667 11.374 16.8645 11.374Z" fill="#F05728"/>
<path d="M11.6848 14.644C11.7826 14.644 11.8618 14.5648 11.8618 14.467C11.8618 14.3693 11.7826 14.29 11.6848 14.29C11.5871 14.29 11.5078 14.3693 11.5078 14.467C11.5078 14.5648 11.5871 14.644 11.6848 14.644Z" fill="#F05728"/>
<path d="M11.7043 14.998C11.8021 14.998 11.8813 14.9188 11.8813 14.821C11.8813 14.7233 11.8021 14.644 11.7043 14.644C11.6066 14.644 11.5273 14.7233 11.5273 14.821C11.5273 14.9188 11.6066 14.998 11.7043 14.998Z" fill="#F05728"/>
<path d="M13.3879 14.3649C13.7143 14.3649 13.9789 14.1003 13.9789 13.7739C13.9789 13.4475 13.7143 13.1829 13.3879 13.1829C13.0615 13.1829 12.7969 13.4475 12.7969 13.7739C12.7969 14.1003 13.0615 14.3649 13.3879 14.3649Z" fill="#F05728"/>
<path d="M16.0608 8.51793C16.459 8.51793 16.7818 8.19513 16.7818 7.79693C16.7818 7.39873 16.459 7.07593 16.0608 7.07593C15.6626 7.07593 15.3398 7.39873 15.3398 7.79693C15.3398 8.19513 15.6626 8.51793 16.0608 8.51793Z" fill="#F05728"/>
<path d="M4.54744 16.12C4.97491 16.12 5.32144 15.7735 5.32144 15.346C5.32144 14.9186 4.97491 14.572 4.54744 14.572C4.11997 14.572 3.77344 14.9186 3.77344 15.346C3.77344 15.7735 4.11997 16.12 4.54744 16.12Z" fill="#F05728"/>
<path d="M5.29778 16.808C5.4342 16.808 5.54478 16.6974 5.54478 16.561C5.54478 16.4246 5.4342 16.314 5.29778 16.314C5.16137 16.314 5.05078 16.4246 5.05078 16.561C5.05078 16.6974 5.16137 16.808 5.29778 16.808Z" fill="#F05728"/>
<path d="M4.24505 16.5677C4.38146 16.5677 4.49205 16.4571 4.49205 16.3207C4.49205 16.1843 4.38146 16.0737 4.24505 16.0737C4.10863 16.0737 3.99805 16.1843 3.99805 16.3207C3.99805 16.4571 4.10863 16.5677 4.24505 16.5677Z" fill="#F05728"/>
<path d="M8.3255 17.7689C8.53979 17.7689 8.7135 17.5952 8.7135 17.3809C8.7135 17.1666 8.53979 16.9929 8.3255 16.9929C8.11121 16.9929 7.9375 17.1666 7.9375 17.3809C7.9375 17.5952 8.11121 17.7689 8.3255 17.7689Z" fill="#F05728"/>
<path d="M5.52938 17.0758C5.62326 17.0758 5.69938 16.9997 5.69938 16.9058C5.69938 16.812 5.62326 16.7358 5.52938 16.7358C5.43549 16.7358 5.35938 16.812 5.35938 16.9058C5.35938 16.9997 5.43549 17.0758 5.52938 17.0758Z" fill="#F05728"/>
<path d="M6.06292 16.911C6.21093 16.911 6.33092 16.791 6.33092 16.643C6.33092 16.495 6.21093 16.375 6.06292 16.375C5.91491 16.375 5.79492 16.495 5.79492 16.643C5.79492 16.791 5.91491 16.911 6.06292 16.911Z" fill="#F05728"/>
<path d="M6.53948 16.6561C6.6875 16.6561 6.80748 16.5361 6.80748 16.3881C6.80748 16.2401 6.6875 16.1201 6.53948 16.1201C6.39147 16.1201 6.27148 16.2401 6.27148 16.3881C6.27148 16.5361 6.39147 16.6561 6.53948 16.6561Z" fill="#F05728"/>
<path d="M5.73331 16.4471C6.03044 16.4471 6.27131 16.2062 6.27131 15.9091C6.27131 15.612 6.03044 15.3711 5.73331 15.3711C5.43618 15.3711 5.19531 15.612 5.19531 15.9091C5.19531 16.2062 5.43618 16.4471 5.73331 16.4471Z" fill="#F05728"/>
<path d="M10.2411 15.908C10.5383 15.908 10.7791 15.6672 10.7791 15.37C10.7791 15.0729 10.5383 14.832 10.2411 14.832C9.944 14.832 9.70312 15.0729 9.70312 15.37C9.70312 15.6672 9.944 15.908 10.2411 15.908Z" fill="#F05728"/>
<path d="M12.3642 14.7811C12.6613 14.7811 12.9022 14.5402 12.9022 14.2431C12.9022 13.9459 12.6613 13.7051 12.3642 13.7051C12.067 13.7051 11.8262 13.9459 11.8262 14.2431C11.8262 14.5402 12.067 14.7811 12.3642 14.7811Z" fill="#F05728"/>
<path d="M6.51048 16.06C6.64248 16.06 6.74948 15.953 6.74948 15.821C6.74948 15.689 6.64248 15.582 6.51048 15.582C6.37849 15.582 6.27148 15.689 6.27148 15.821C6.27148 15.953 6.37849 16.06 6.51048 16.06Z" fill="#F05728"/>
<path d="M6.30077 14.719C6.46148 14.719 6.59177 14.5887 6.59177 14.428C6.59177 14.2672 6.46148 14.137 6.30077 14.137C6.14005 14.137 6.00977 14.2672 6.00977 14.428C6.00977 14.5887 6.14005 14.719 6.30077 14.719Z" fill="#F05728"/>
<path d="M7.30733 15.1542C7.48461 15.1542 7.62833 15.0105 7.62833 14.8332C7.62833 14.6559 7.48461 14.5122 7.30733 14.5122C7.13004 14.5122 6.98633 14.6559 6.98633 14.8332C6.98633 15.0105 7.13004 15.1542 7.30733 15.1542Z" fill="#F05728"/>
<path d="M4.1748 12.7771C4.35871 12.7771 4.5078 12.628 4.5078 12.4441C4.5078 12.2602 4.35871 12.1111 4.1748 12.1111C3.99089 12.1111 3.8418 12.2602 3.8418 12.4441C3.8418 12.628 3.99089 12.7771 4.1748 12.7771Z" fill="#F05728"/>
<path d="M4.57148 13.2401C4.73717 13.2401 4.87148 13.1058 4.87148 12.9401C4.87148 12.7745 4.73717 12.6401 4.57148 12.6401C4.4058 12.6401 4.27148 12.7745 4.27148 12.9401C4.27148 13.1058 4.4058 13.2401 4.57148 13.2401Z" fill="#F05728"/>
<path d="M4.38158 13.6789C4.51357 13.6789 4.62058 13.5719 4.62058 13.4399C4.62058 13.3079 4.51357 13.2009 4.38158 13.2009C4.24958 13.2009 4.14258 13.3079 4.14258 13.4399C4.14258 13.5719 4.24958 13.6789 4.38158 13.6789Z" fill="#F05728"/>
<path d="M4.65077 14.4011C4.86671 14.4011 5.04177 14.2261 5.04177 14.0101C5.04177 13.7942 4.86671 13.6191 4.65077 13.6191C4.43482 13.6191 4.25977 13.7942 4.25977 14.0101C4.25977 14.2261 4.43482 14.4011 4.65077 14.4011Z" fill="#F05728"/>
<path d="M5.66131 15.2958C5.91868 15.2958 6.12731 15.0871 6.12731 14.8298C6.12731 14.5724 5.91868 14.3638 5.66131 14.3638C5.40395 14.3638 5.19531 14.5724 5.19531 14.8298C5.19531 15.0871 5.40395 15.2958 5.66131 15.2958Z" fill="#F05728"/>
<path d="M0.770687 10.129C1.02805 10.129 1.23669 9.92039 1.23669 9.66302C1.23669 9.40566 1.02805 9.19702 0.770687 9.19702C0.513323 9.19702 0.304688 9.40566 0.304688 9.66302C0.304688 9.92039 0.513323 10.129 0.770687 10.129Z" fill="#F05728"/>
<path d="M3.01744 15.2649C3.70448 15.2649 4.26144 14.7079 4.26144 14.0209C4.26144 13.3338 3.70448 12.7769 3.01744 12.7769C2.3304 12.7769 1.77344 13.3338 1.77344 14.0209C1.77344 14.7079 2.3304 15.2649 3.01744 15.2649Z" fill="#F05728"/>
<path d="M0.750469 8.53902C0.968621 8.53902 1.14547 8.36218 1.14547 8.14402C1.14547 7.92587 0.968621 7.74902 0.750469 7.74902C0.532316 7.74902 0.355469 7.92587 0.355469 8.14402C0.355469 8.36218 0.532316 8.53902 0.750469 8.53902Z" fill="#F05728"/>
<path d="M3.30319 12.8022C3.61302 12.8022 3.86419 12.551 3.86419 12.2412C3.86419 11.9313 3.61302 11.6802 3.30319 11.6802C2.99336 11.6802 2.74219 11.9313 2.74219 12.2412C2.74219 12.551 2.99336 12.8022 3.30319 12.8022Z" fill="#F05728"/>
<path d="M3.08634 9.00814C3.32604 9.00814 3.52034 8.81383 3.52034 8.57414C3.52034 8.33445 3.32604 8.14014 3.08634 8.14014C2.84665 8.14014 2.65234 8.33445 2.65234 8.57414C2.65234 8.81383 2.84665 9.00814 3.08634 9.00814Z" fill="#F05728"/>
<path d="M2.19381 12.9809C2.50364 12.9809 2.75481 12.7297 2.75481 12.4199C2.75481 12.1101 2.50364 11.8589 2.19381 11.8589C1.88398 11.8589 1.63281 12.1101 1.63281 12.4199C1.63281 12.7297 1.88398 12.9809 2.19381 12.9809Z" fill="#F05728"/>
<path d="M2.57219 11.912C2.96155 11.912 3.27719 11.5963 3.27719 11.207C3.27719 10.8176 2.96155 10.502 2.57219 10.502C2.18283 10.502 1.86719 10.8176 1.86719 11.207C1.86719 11.5963 2.18283 11.912 2.57219 11.912Z" fill="#F05728"/>
<path d="M1.26359 11.431C1.65295 11.431 1.96859 11.1154 1.96859 10.726C1.96859 10.3366 1.65295 10.021 1.26359 10.021C0.874233 10.021 0.558594 10.3366 0.558594 10.726C0.558594 11.1154 0.874233 11.431 1.26359 11.431Z" fill="#F05728"/>
<path d="M2.14641 9.92514C2.53577 9.92514 2.85141 9.6095 2.85141 9.22014C2.85141 8.83078 2.53577 8.51514 2.14641 8.51514C1.75705 8.51514 1.44141 8.83078 1.44141 9.22014C1.44141 9.6095 1.75705 9.92514 2.14641 9.92514Z" fill="#F05728"/>
<path d="M1.43012 8.79873C1.62453 8.79873 1.78212 8.64113 1.78212 8.44673C1.78212 8.25232 1.62453 8.09473 1.43012 8.09473C1.23572 8.09473 1.07812 8.25232 1.07812 8.44673C1.07812 8.64113 1.23572 8.79873 1.43012 8.79873Z" fill="#F05728"/>
<path d="M1.37934 8.09414C1.57375 8.09414 1.73134 7.93654 1.73134 7.74214C1.73134 7.54773 1.57375 7.39014 1.37934 7.39014C1.18494 7.39014 1.02734 7.54773 1.02734 7.74214C1.02734 7.93654 1.18494 8.09414 1.37934 8.09414Z" fill="#F05728"/>
<path d="M2.64497 10.5009C2.83937 10.5009 2.99697 10.3433 2.99697 10.1489C2.99697 9.95447 2.83937 9.79688 2.64497 9.79688C2.45056 9.79688 2.29297 9.95447 2.29297 10.1489C2.29297 10.3433 2.45056 10.5009 2.64497 10.5009Z" fill="#F05728"/>
<path d="M6.20767 17.5289C6.38385 17.5289 6.52667 17.386 6.52667 17.2099C6.52667 17.0337 6.38385 16.8909 6.20767 16.8909C6.03149 16.8909 5.88867 17.0337 5.88867 17.2099C5.88867 17.386 6.03149 17.5289 6.20767 17.5289Z" fill="#F05728"/>
<path d="M0.969187 12.0922C1.16359 12.0922 1.32119 11.9346 1.32119 11.7402C1.32119 11.5458 1.16359 11.3882 0.969187 11.3882C0.774783 11.3882 0.617188 11.5458 0.617188 11.7402C0.617188 11.9346 0.774783 12.0922 0.969187 12.0922Z" fill="#F05728"/>
<path d="M3.37413 10.841C3.60664 10.841 3.79513 10.6525 3.79513 10.42C3.79513 10.1875 3.60664 9.99902 3.37413 9.99902C3.14161 9.99902 2.95312 10.1875 2.95312 10.42C2.95312 10.6525 3.14161 10.841 3.37413 10.841Z" fill="#F05728"/>
<path d="M3.22787 10.008C3.46591 10.008 3.65887 9.81503 3.65887 9.577C3.65887 9.33896 3.46591 9.146 3.22787 9.146C2.98984 9.146 2.79688 9.33896 2.79688 9.577C2.79688 9.81503 2.98984 10.008 3.22787 10.008Z" fill="#F05728"/>
<path d="M1.07184 12.548C1.19997 12.548 1.30384 12.4441 1.30384 12.316C1.30384 12.1879 1.19997 12.084 1.07184 12.084C0.943714 12.084 0.839844 12.1879 0.839844 12.316C0.839844 12.4441 0.943714 12.548 1.07184 12.548Z" fill="#F05728"/>
<path d="M3.607 15.9381C3.73513 15.9381 3.839 15.8343 3.839 15.7061C3.839 15.578 3.73513 15.4741 3.607 15.4741C3.47887 15.4741 3.375 15.578 3.375 15.7061C3.375 15.8343 3.47887 15.9381 3.607 15.9381Z" fill="#F05728"/>
<path d="M4.78233 16.6858C4.9458 16.6858 5.07833 16.5532 5.07833 16.3898C5.07833 16.2263 4.9458 16.0938 4.78233 16.0938C4.61885 16.0938 4.48633 16.2263 4.48633 16.3898C4.48633 16.5532 4.61885 16.6858 4.78233 16.6858Z" fill="#F05728"/>
<path d="M2.44561 8.33897C2.84381 8.33897 3.16661 8.01617 3.16661 7.61797C3.16661 7.21978 2.84381 6.89697 2.44561 6.89697C2.04741 6.89697 1.72461 7.21978 1.72461 7.61797C1.72461 8.01617 2.04741 8.33897 2.44561 8.33897Z" fill="#F05728"/>
<path d="M2.72278 6.49C3.02488 6.49 3.26978 6.2451 3.26978 5.943C3.26978 5.6409 3.02488 5.396 2.72278 5.396C2.42068 5.396 2.17578 5.6409 2.17578 5.943C2.17578 6.2451 2.42068 6.49 2.72278 6.49Z" fill="#F05728"/>
<path d="M1.73097 5.74295C1.97287 5.74295 2.16897 5.54909 2.16897 5.30995C2.16897 5.07081 1.97287 4.87695 1.73097 4.87695C1.48907 4.87695 1.29297 5.07081 1.29297 5.30995C1.29297 5.54909 1.48907 5.74295 1.73097 5.74295Z" fill="#F05728"/>
<path d="M3.58448 6.99001C3.75735 6.99001 3.89748 6.84988 3.89748 6.67701C3.89748 6.50415 3.75735 6.36401 3.58448 6.36401C3.41162 6.36401 3.27148 6.50415 3.27148 6.67701C3.27148 6.84988 3.41162 6.99001 3.58448 6.99001Z" fill="#F05728"/>
<path d="M3.69844 6.37295C3.93316 6.37295 4.12344 6.18267 4.12344 5.94795C4.12344 5.71323 3.93316 5.52295 3.69844 5.52295C3.46372 5.52295 3.27344 5.71323 3.27344 5.94795C3.27344 6.18267 3.46372 6.37295 3.69844 6.37295Z" fill="#F05728"/>
<path d="M4.41552 5.78098C4.79494 5.78098 5.10252 5.4734 5.10252 5.09398C5.10252 4.71456 4.79494 4.40698 4.41552 4.40698C4.0361 4.40698 3.72852 4.71456 3.72852 5.09398C3.72852 5.4734 4.0361 5.78098 4.41552 5.78098Z" fill="#F05728"/>
<path d="M2.68309 5.39695C3.06251 5.39695 3.37009 5.08937 3.37009 4.70995C3.37009 4.33053 3.06251 4.02295 2.68309 4.02295C2.30367 4.02295 1.99609 4.33053 1.99609 4.70995C1.99609 5.08937 2.30367 5.39695 2.68309 5.39695Z" fill="#F05728"/>
<path d="M2.95872 4.0649C3.13655 4.0649 3.28072 3.92073 3.28072 3.7429C3.28072 3.56506 3.13655 3.4209 2.95872 3.4209C2.78088 3.4209 2.63672 3.56506 2.63672 3.7429C2.63672 3.92073 2.78088 4.0649 2.95872 4.0649Z" fill="#F05728"/>
<path d="M4.10488 4.44486C4.48209 4.44486 4.78788 4.13907 4.78788 3.76186C4.78788 3.38465 4.48209 3.07886 4.10488 3.07886C3.72766 3.07886 3.42188 3.38465 3.42188 3.76186C3.42188 4.13907 3.72766 4.44486 4.10488 4.44486Z" fill="#F05728"/>
<path d="M5.85097 4.44901C6.22818 4.44901 6.53397 4.14322 6.53397 3.76601C6.53397 3.3888 6.22818 3.08301 5.85097 3.08301C5.47376 3.08301 5.16797 3.3888 5.16797 3.76601C5.16797 4.14322 5.47376 4.44901 5.85097 4.44901Z" fill="#F05728"/>
<path d="M5.71391 3.09798C5.89892 3.09798 6.04891 2.94799 6.04891 2.76298C6.04891 2.57796 5.89892 2.42798 5.71391 2.42798C5.52889 2.42798 5.37891 2.57796 5.37891 2.76298C5.37891 2.94799 5.52889 3.09798 5.71391 3.09798Z" fill="#F05728"/>
<path d="M4.26347 3.08895C4.41977 3.08895 4.54647 2.96225 4.54647 2.80595C4.54647 2.64965 4.41977 2.52295 4.26347 2.52295C4.10717 2.52295 3.98047 2.64965 3.98047 2.80595C3.98047 2.96225 4.10717 3.08895 4.26347 3.08895Z" fill="#F05728"/>
<path d="M4.78587 3.39206C4.91787 3.39206 5.02487 3.28506 5.02487 3.15306C5.02487 3.02107 4.91787 2.91406 4.78587 2.91406C4.65388 2.91406 4.54688 3.02107 4.54688 3.15306C4.54688 3.28506 4.65388 3.39206 4.78587 3.39206Z" fill="#F05728"/>
<path d="M6.76244 4.13083C6.89443 4.13083 7.00144 4.02383 7.00144 3.89183C7.00144 3.75984 6.89443 3.65283 6.76244 3.65283C6.63044 3.65283 6.52344 3.75984 6.52344 3.89183C6.52344 4.02383 6.63044 4.13083 6.76244 4.13083Z" fill="#F05728"/>
<path d="M7.13989 4.24804C7.23765 4.24804 7.31689 4.1688 7.31689 4.07104C7.31689 3.97329 7.23765 3.89404 7.13989 3.89404C7.04214 3.89404 6.96289 3.97329 6.96289 4.07104C6.96289 4.1688 7.04214 4.24804 7.13989 4.24804Z" fill="#F05728"/>
<path d="M14.6145 11.623C14.7123 11.623 14.7915 11.5438 14.7915 11.446C14.7915 11.3483 14.7123 11.269 14.6145 11.269C14.5167 11.269 14.4375 11.3483 14.4375 11.446C14.4375 11.5438 14.5167 11.623 14.6145 11.623Z" fill="#F05728"/>
<path d="M7.28631 3.84216C7.61271 3.84216 7.87731 3.57756 7.87731 3.25116C7.87731 2.92476 7.61271 2.66016 7.28631 2.66016C6.95991 2.66016 6.69531 2.92476 6.69531 3.25116C6.69531 3.57756 6.95991 3.84216 7.28631 3.84216Z" fill="#F05728"/>
<path d="M8.57397 3.99999C8.7982 3.99999 8.97997 3.81822 8.97997 3.59399C8.97997 3.36976 8.7982 3.18799 8.57397 3.18799C8.34974 3.18799 8.16797 3.36976 8.16797 3.59399C8.16797 3.81822 8.34974 3.99999 8.57397 3.99999Z" fill="#F05728"/>
<path d="M1.57452 7.17589C1.97271 7.17589 2.29552 6.85308 2.29552 6.45489C2.29552 6.05669 1.97271 5.73389 1.57452 5.73389C1.17632 5.73389 0.853516 6.05669 0.853516 6.45489C0.853516 6.85308 1.17632 7.17589 1.57452 7.17589Z" fill="#F05728"/>
<path d="M13.6553 15.3587C13.9197 15.2479 14.0441 14.9438 13.9333 14.6794C13.8225 14.4151 13.5184 14.2906 13.254 14.4014C12.9897 14.5122 12.8652 14.8163 12.976 15.0807C13.0868 15.345 13.391 15.4695 13.6553 15.3587Z" fill="#F05728"/>
<path d="M12.914 16.6949C13.3388 16.5168 13.5388 16.0281 13.3607 15.6033C13.1827 15.1785 12.6939 14.9785 12.2692 15.1566C11.8444 15.3347 11.6444 15.8234 11.8224 16.2482C12.0005 16.673 12.4892 16.873 12.914 16.6949Z" fill="#F05728"/>
<path d="M11.5361 16.1079C11.7276 16.0275 11.8177 15.8072 11.7373 15.6157C11.6569 15.4242 11.4366 15.3342 11.2451 15.4145C11.0536 15.4949 10.9636 15.7153 11.0439 15.9067C11.1243 16.0982 11.3447 16.1883 11.5361 16.1079Z" fill="#F05728"/>
<path d="M9.94571 16.2654C10.0685 16.214 10.1263 16.0727 10.0748 15.95C10.0233 15.8272 9.88212 15.7694 9.75937 15.8209C9.63662 15.8723 9.57882 16.0136 9.63028 16.1363C9.68174 16.2591 9.82296 16.3169 9.94571 16.2654Z" fill="#F05728"/>
<path d="M11.6746 16.849C11.8661 16.7687 11.9563 16.5483 11.876 16.3568C11.7957 16.1653 11.5754 16.0751 11.3839 16.1554C11.1924 16.2357 11.1022 16.456 11.1825 16.6475C11.2628 16.8391 11.4831 16.9292 11.6746 16.849Z" fill="#F05728"/>
<path d="M11.3564 17.471C11.5321 17.3973 11.6149 17.1952 11.5412 17.0194C11.4676 16.8437 11.2654 16.761 11.0897 16.8346C10.9139 16.9083 10.8312 17.1105 10.9049 17.2862C10.9785 17.4619 11.1807 17.5447 11.3564 17.471Z" fill="#F05728"/>
<path d="M10.8921 16.7031C11.1329 16.602 11.2462 16.3248 11.1451 16.0839C11.044 15.8431 10.7668 15.7298 10.5259 15.8309C10.2851 15.932 10.1718 16.2092 10.2729 16.45C10.374 16.6909 10.6512 16.8042 10.8921 16.7031Z" fill="#F05728"/>
<path d="M10.591 17.5885C10.8319 17.4875 10.9454 17.2103 10.8444 16.9694C10.7434 16.7285 10.4662 16.6151 10.2253 16.7161C9.98437 16.8171 9.87093 17.0942 9.97192 17.3351C10.0729 17.5761 10.3501 17.6895 10.591 17.5885Z" fill="#F05728"/>
<path d="M9.56757 17.0187C9.80849 16.9177 9.92192 16.6405 9.82093 16.3996C9.71994 16.1587 9.44277 16.0452 9.20185 16.1462C8.96093 16.2472 8.84749 16.5244 8.94849 16.7653C9.04948 17.0062 9.32665 17.1197 9.56757 17.0187Z" fill="#F05728"/>
<path d="M8.49077 16.8531C8.73679 16.75 8.85262 16.4669 8.74949 16.2209C8.64637 15.9749 8.36333 15.8591 8.11732 15.9622C7.87131 16.0653 7.75548 16.3484 7.8586 16.5944C7.96173 16.8404 8.24476 16.9562 8.49077 16.8531Z" fill="#F05728"/>
<path d="M8.08479 15.8248C8.33074 15.7216 8.44643 15.4385 8.3432 15.1926C8.23996 14.9466 7.9569 14.8309 7.71095 14.9342C7.465 15.0374 7.34931 15.3205 7.45255 15.5664C7.55578 15.8124 7.83885 15.9281 8.08479 15.8248Z" fill="#F05728"/>
<path d="M8.77684 15.5497C8.92454 15.4878 8.99409 15.3179 8.93217 15.1702C8.87026 15.0225 8.70032 14.9529 8.55261 15.0148C8.4049 15.0768 8.33535 15.2467 8.39727 15.3944C8.45919 15.5421 8.62913 15.6117 8.77684 15.5497Z" fill="#F05728"/>
<path d="M10.701 14.8966C10.8365 14.8398 10.9003 14.6839 10.8435 14.5484C10.7867 14.413 10.6308 14.3492 10.4953 14.406C10.3598 14.4627 10.296 14.6186 10.3528 14.7541C10.4096 14.8896 10.5655 14.9534 10.701 14.8966Z" fill="#F05728"/>
<path d="M9.17071 15.2389C9.26953 15.1975 9.31605 15.0838 9.27463 14.985C9.23321 14.8862 9.11953 14.8396 9.02071 14.8811C8.9219 14.9225 8.87538 15.0362 8.9168 15.135C8.95822 15.2338 9.0719 15.2803 9.17071 15.2389Z" fill="#F05728"/>
<path d="M9.52989 15.6795C9.67301 15.6195 9.73936 15.4524 9.67809 15.3062C9.61681 15.16 9.45111 15.0902 9.30798 15.1502C9.16485 15.2102 9.0985 15.3773 9.15978 15.5235C9.22106 15.6697 9.38676 15.7395 9.52989 15.6795Z" fill="#F05728"/>
<path d="M7.31949 16.5839C7.50642 16.5055 7.59444 16.2905 7.51608 16.1035C7.43772 15.9166 7.22266 15.8286 7.03573 15.9069C6.8488 15.9853 6.76079 16.2004 6.83915 16.3873C6.91751 16.5742 7.13256 16.6622 7.31949 16.5839Z" fill="#F05728"/>
<path d="M6.87969 17.2553C7.02485 17.1945 7.0932 17.0275 7.03235 16.8823C6.9715 16.7372 6.80449 16.6688 6.65933 16.7297C6.51416 16.7905 6.44581 16.9575 6.50666 17.1027C6.56752 17.2478 6.73452 17.3162 6.87969 17.2553Z" fill="#F05728"/>
<path d="M7.27617 15.8545C7.42133 15.7936 7.48968 15.6266 7.42883 15.4814C7.36798 15.3363 7.20097 15.2679 7.05581 15.3288C6.91065 15.3896 6.8423 15.5566 6.90315 15.7018C6.964 15.847 7.13101 15.9153 7.27617 15.8545Z" fill="#F05728"/>
<path d="M6.76207 15.549C6.99688 15.4506 7.10743 15.1805 7.009 14.9457C6.91057 14.7109 6.64043 14.6003 6.40563 14.6987C6.17082 14.7972 6.06026 15.0673 6.15869 15.3021C6.25712 15.5369 6.52726 15.6475 6.76207 15.549Z" fill="#F05728"/>
<path d="M7.72515 17.4532C7.97116 17.3501 8.087 17.067 7.98387 16.821C7.88074 16.575 7.59771 16.4592 7.3517 16.5623C7.10568 16.6654 6.98985 16.9485 7.09298 17.1945C7.1961 17.4405 7.47914 17.5563 7.72515 17.4532Z" fill="#F05728"/>
</svg>
